<?xml version="1.0" encoding="UTF-8"?>
<svg id="Layer_1" xmlns="http://www.w3.org/2000/svg" version="1.1" viewBox="0 0 175 53.95">
  <!-- Generator: Adobe Illustrator 30.0.0, SVG Export Plug-In . SVG Version: 2.1.1 Build 123)  -->
  <defs>
    <style>
      .st0 {
        fill: #231f20;
      }

      .st1 {
        fill: #fff;
      }

      .st2 {
        fill: #ea0029;
      }
    </style>
  </defs>
  <rect class="st1" width="175" height="53.95"/>
  <g>
    <g>
      <g>
        <g>
          <path class="st0" d="M124.3,35.65v-.28h-2.36v.28c.55,0,.7.12.7.7v3.07c0,.61-.11.78-.7.76v.28h2.36v-.28c-.65.02-.67-.24-.67-.7v-3.21c0-.44.11-.62.67-.61Z"/>
          <path class="st0" d="M149.57,35.65v-.28h-2.36v.28c.55,0,.7.12.7.7v3.07c0,.61-.11.78-.7.76v.28h2.36v-.28c-.65.02-.67-.24-.67-.7v-3.21c0-.44.11-.62.67-.61Z"/>
          <path class="st0" d="M69.82,39.52c0,.52.07.59.61.59.98,0,1.39-.21,1.77-.59.5-.5.64-1.06.64-1.64s-.13-1.1-.63-1.6c-.41-.41-.83-.6-1.78-.6-.14,0-.39,0-.6.02v3.82ZM68.84,36.37c0-.6-.16-.73-.78-.72v-.28c.24,0,1.02-.03,1.36-.05.44-.02.86-.02,1.17-.02,1.24,0,2.13.22,2.63.72.51.51.7,1.13.7,1.74,0,1.2-.84,2.69-3.24,2.69h-2.63v-.28c.7,0,.78-.11.78-.66v-3.15Z"/>
          <path class="st0" d="M117.05,39.52c0,.52.07.59.61.59.98,0,1.39-.21,1.77-.59.5-.5.64-1.06.64-1.64s-.13-1.1-.63-1.6c-.41-.41-.83-.6-1.78-.6-.14,0-.39,0-.6.02v3.82ZM116.06,36.37c0-.6-.16-.73-.78-.72v-.28c.24,0,1.02-.03,1.36-.05.44-.02.86-.02,1.17-.02,1.24,0,2.13.22,2.63.72.51.51.7,1.13.7,1.74,0,1.2-.84,2.69-3.24,2.69h-2.63v-.28c.7,0,.78-.11.78-.66v-3.15Z"/>
          <path class="st0" d="M89.89,39.5l-1.65-4.26h-1.11l.08.23-1.51,4.03c-.08.23-.18.43-.24.55-.13.26-.27.06-.42-.11-.13-.15-.33-.41-.57-.75-.39-.58-.81-1.25-.96-1.18.62-.26.96-.76.96-1.3,0-.74-.56-1.41-2.22-1.41-.16,0-.56,0-1,.02-.56.02-1.06.06-1.25.06v.28c.67,0,.76.13.76.66v3.17c0,.54-.07.73-.76.7v.28h2.58v-.28c-.74.02-.83-.11-.83-.81v-1.11c.21.02.79,0,.79,0,0,0,.16,0,.85,1.09.09.14.15.22.15.22.5.72.64.92,1.88.89h1.47v-.28c-.65.02-.77-.09-.74-.32.01-.08.02-.13.08-.29l.39-1.03h1.78s.37.96.37.96c.08.21.11.29.11.38,0,.24-.13.3-.78.3v.28h2.56v-.28c-.52,0-.51-.06-.78-.68ZM82.04,37.86s-.22,0-.27-.01v-2.15c.07-.02.27-.03.39-.03.89,0,1.27.35,1.27,1.17,0,.45-.31,1-1.39,1.02ZM86.77,38.12l.72-2.05.78,2.05h-1.5Z"/>
          <path class="st0" d="M91.08,40.46v-.28c.66,0,.79-.06.79-.7v-3.12c0-.56-.06-.72-.79-.7v-.28h2.76v.28c-.88,0-.98.03-.98.65v3.34c0,.34.07.4.44.4h.77c.7,0,.91.02,1.52-.81h.32l-.63,1.24h-4.2Z"/>
          <path class="st0" d="M103.21,40.46c-.1-.04-.16-.06-.28-.06-.37,0-.93.19-1.63.19-1.91,0-2.94-1.11-2.94-2.58s.93-2.77,3-2.77c.89,0,1.42.27,1.66.27.07,0,.11-.02.15-.06h.31l.04,1.49h-.35c-.3-.84-.86-1.35-1.77-1.35-1.23,0-1.99.83-1.99,2.21s.87,2.43,2.13,2.43c.8,0,1.53-.44,1.98-1.22h.35l-.67,1.45Z"/>
          <path class="st0" d="M132.94,35.37h2.38v.28c-.61,0-.72.13-.72.7v2.09c0,1.09.67,1.59,1.7,1.59.91,0,1.58-.37,1.58-1.58v-2.07c0-.64-.12-.73-.79-.73v-.28h2.09v.28c-.62,0-.74.13-.74.7v2.22c0,1.28-.81,2.02-2.41,2.02s-2.39-.74-2.39-2.08v-2.24c0-.5-.13-.62-.69-.62v-.28Z"/>
          <path class="st0" d="M141.17,36.3v3.08c0,.64.08.84.82.8v.28h-2.07v-.28c.59.02.69-.17.69-.7v-3.57c-.2-.17-.38-.24-.69-.26v-.28h1.84l3.16,3.85v-2.87c0-.61-.1-.71-.81-.7v-.28h2.09v.28c-.55,0-.72.1-.72.72v4.14h-.84l-3.47-4.21Z"/>
          <path class="st0" d="M158.66,36.3v3.08c0,.64.08.84.82.8v.28h-2.07v-.28c.59.02.69-.17.69-.7v-3.57c-.2-.17-.38-.24-.69-.26v-.28h1.84l3.16,3.85v-2.87c0-.61-.1-.71-.81-.7v-.28h2.09v.28c-.55,0-.72.1-.72.72v4.14h-.84l-3.47-4.21Z"/>
        </g>
        <path class="st0" d="M153.64,40.23c1.14,0,1.81-.82,1.81-2.2,0-1.48-.75-2.43-1.96-2.43s-1.83.8-1.83,2.23c0,1.64.94,2.39,1.98,2.39M153.55,35.24c1.77,0,2.99,1.06,2.99,2.59s-1.18,2.77-3.02,2.77c-1.71,0-2.95-1.07-2.95-2.54,0-1.64,1.25-2.81,2.99-2.81"/>
      </g>
      <path class="st0" d="M125.08,35.23h.24c.03.06.06.1.13.11.07.02.19.02.4.02h3.42c.42,0,.48-.02.53-.14h.24l.15,1.41h-.26c-.11-.85-.28-.84-.77-.84h-1.11v3.74c0,.56.09.65.95.65v.28h-2.89v-.28c.82,0,.95-.11.95-.65v-3.74h-1.11c-.48,0-.65,0-.77.84h-.26l.15-1.41Z"/>
      <path class="st0" d="M62.63,40.46v-.28c.66,0,.83-.11.83-.56v-3.41c0-.54-.27-.56-.83-.56v-.28h4.26l.07,1.29h-.28l-.04-.17c-.16-.67-.29-.69-.82-.69h-1.38v1.85h1.22c.47,0,.56-.06.61-.62h.27v1.7h-.27c-.06-.58-.16-.65-.61-.65h-1.22v1.37c0,.51.07.59.48.59h.84c.83,0,.99-.06,1.21-.86h.28l-.12,1.28h-4.52Z"/>
      <path class="st0" d="M74.58,40.46v-.28c.66,0,.83-.11.83-.56v-3.41c0-.54-.27-.56-.83-.56v-.28h4.26l.07,1.29h-.28l-.04-.17c-.16-.67-.29-.69-.82-.69h-1.38v1.85h1.22c.47,0,.56-.06.61-.62h.27v1.7h-.27c-.06-.58-.16-.65-.61-.65h-1.22v1.37c0,.51.07.59.48.59h.84c.83,0,.99-.06,1.21-.86h.28l-.12,1.28h-4.52Z"/>
      <path class="st0" d="M114.16,39.18c-.22.8-.38.86-1.21.86h-.84c-.42,0-.48-.08-.48-.59v-1.37h1.22c.45,0,.56.07.61.65h.27v-1.7h-.27c-.05.56-.14.62-.61.62h-1.22v-1.85h1.38c.52,0,.66.02.82.69l.04.17h.28l-.07-1.29h-4.26v.28c.56,0,.83.02.83.56v3.41c0,.44-.16.56-.77.56h0c-.16,0-.29-.07-.36-.13-.14-.13-.34-.37-.67-.86-.39-.58-.81-1.25-.96-1.18.62-.26.96-.76.96-1.3,0-.74-.56-1.41-2.22-1.41-.16,0-.56,0-1,.02-.56.02-1.06.06-1.25.06v.28c.67,0,.76.13.76.66v3.17c0,.54-.07.73-.76.7v.28h2.58v-.28c-.74.02-.83-.11-.83-.81v-1.11c.21.02.79,0,.79,0,0,0,.16,0,.85,1.09.09.14.15.22.15.22.51.72.64.93,1.91.89h4.52s.12-1.28.12-1.28h-.28ZM106.39,37.86s-.22,0-.27-.01v-2.15c.07-.02.27-.03.39-.03.89,0,1.27.35,1.27,1.17,0,.45-.31,1-1.39,1.02Z"/>
      <path class="st0" d="M57.63,35.37v.28c.56,0,.83.02.83.56h0v3.27h0c0,.54-.07.73-.76.7v.28h2.58v-.28c-.74.02-.83-.11-.83-.81h0v-1.29h1.19c.52,0,.65.11.7.61h.28v-1.57h-.28c-.05.44-.16.52-.66.52h-1.23v-1.85h1.03c.66,0,1,.05,1.04.6h.28v-1.02h-4.17Z"/>
    </g>
    <g>
      <path class="st0" d="M60.76,16.64h-.04l-.4,8.76c-.07,1.62-.05,2.41,1.47,2.44v.96h-4.2v-.96c1.4-.02,1.44-.57,1.53-2.61l.4-8.91c.05-1.26,0-1.8-1.2-1.87v-.96h4l3.37,10.54,3.19-10.54h4.18v.96c-1.29.1-1.38.1-1.29,1.87l.43,9.08c.09,2.07.14,2.29,1.58,2.44v.96h-5.66v-.96h.31c.75,0,1.38,0,1.38-1.6,0-.39-.02-.79-.04-1.16l-.41-8.74h-.04l-3.77,12.46h-.69l-4.1-12.16Z"/>
      <path class="st0" d="M90.8,16.64h-.04l-.4,8.76c-.07,1.62-.05,2.41,1.47,2.44v.96h-4.2v-.96c1.4-.02,1.44-.57,1.53-2.61l.4-8.91c.05-1.26,0-1.8-1.2-1.87v-.96h4l3.37,10.54,3.19-10.54h4.18v.96c-1.29.1-1.38.1-1.29,1.87l.43,9.08c.09,2.07.14,2.29,1.58,2.44v.96h-5.66v-.96h.31c.75,0,1.38,0,1.38-1.6,0-.39-.02-.79-.04-1.16l-.41-8.74h-.04l-3.77,12.46h-.69l-4.1-12.16Z"/>
      <path class="st0" d="M109.74,25.48c0,1.8.44,2.26,1.59,2.26,2.01,0,2.86-1.82,2.86-3.47,0-1.48-.5-3-2.84-3-.34,0-1.33,0-1.61.02v4.18ZM109.74,20.1c.4.02,1.34,0,1.68,0,1.8,0,2.25-1.77,2.25-3.02,0-1.4-.5-2.7-2.68-2.7-.38,0-.94.02-1.25.07v5.64ZM107.26,16.62c0-1.9-.2-2.17-1.56-2.17h-.45v-.96c.45-.02,4.7-.17,5.47-.17,2.25,0,3.97.22,4.94,1.55.45.62.68,1.48.68,2.24,0,1.32-.72,2.87-2.21,3.32v.05c1.74.52,2.84,1.71,2.84,3.7,0,2.51-1.67,4.63-4.64,4.63h-7.25v-.96c1.76,0,2.17-.62,2.17-2.07v-9.16Z"/>
      <path class="st0" d="M126.53,14.84h-3.77v5.54h2.75c.99,0,1.35-.47,1.35-1.77h.88v4.9h-.88c0-1.33-.23-1.77-1.62-1.77h-2.48v4.43c0,1.06.14,1.28.66,1.28h2.84c1.17,0,1.73-.44,2.07-2.51h.84l-.22,3.87h-10.82v-.96h.74c1.04,0,1.4-.57,1.4-1.77v-9.82c0-1.33-.32-1.8-1.56-1.8h-.18v-.96h9.9l.18,3.57h-.84c-.18-1.67-.41-2.22-1.24-2.22"/>
      <path class="st0" d="M83.56,14.84h-3.77v5.54h2.75c.99,0,1.35-.47,1.35-1.77h.88v4.9h-.88c0-1.33-.23-1.77-1.62-1.77h-2.48v4.43c0,1.06.14,1.28.66,1.28h2.84c1.17,0,1.73-.44,2.07-2.51h.84l-.22,3.87h-10.82v-.96h.74c1.04,0,1.4-.57,1.4-1.77v-9.82c0-1.33-.32-1.8-1.56-1.8h-.18v-.96h9.9l.18,3.57h-.84c-.18-1.67-.41-2.22-1.24-2.22"/>
      <path class="st0" d="M163.15,27.84c-1.02,0-1.42-.54-1.42-1.8h0v-12.69l-1.03.02c-.95,1.5-2.14,2.46-3.54,3.39l.3.9c.77-.35,1.33-.78,1.78-1.18v9.56c0,1.42-.47,1.79-1.56,1.79h-.29v.96h6.29v-.96h-.54Z"/>
      <path class="st0" d="M163.75,19.42h.36c.19.8.68,1.23,1.16,1.23.31,0,.64-.36.64-.72,0-1.47-2.05-1.61-2.16-3-.09-1.13.7-1.82,1.75-1.82.42,0,.78.09,1.25.3l.02,1.53h-.36c-.2-.79-.57-1.22-1.05-1.22-.29,0-.51.23-.51.54,0,1.17,2.2,1.22,2.2,3.18,0,.75-.35,1.67-1.45,1.8-.76.09-1.03-.2-1.18-.2-.07,0-.13.06-.22.19h-.32l-.12-1.82Z"/>
      <path class="st0" d="M169.48,19.52c0,.53.19.76.51.76.27,0,.52-.21.85-.72l.16.4c-.33.77-1,1.3-1.62,1.3-.76,0-1.26-.54-1.26-1.77v-3.43h-.59v-.37c.67-.36,1.43-1.4,1.63-2.2h.32v1.79h1.3v.79h-1.3v3.46Z"/>
      <path class="st0" d="M143.45,28.2c-.7-.2-1.29-.71-1.75-1.61-1.01-1.97-1.71-4.05-2.9-5.41,1.67-.62,2.63-2.18,2.6-3.71-.02-1.06-.21-1.92-.8-2.73-1.08-1.19-2.01-1.43-4.66-1.43-.65,0-4.33.11-5.23.18v.96h.38c1.2,0,1.44.69,1.44,1.87v9.72c0,1.43-.47,1.8-1.56,1.8h-.29v.96h6.29v-.96h-.54c-1.02,0-1.42-.54-1.42-1.8v-4.28h1.35c1.15,1.4,2.26,4.64,3.16,5.87.84,1.16,1.53,1.18,3.76,1.18h.25s-.04-.38-.07-.62ZM136.4,20.49c-.34,0-.99-.02-1.38-.05v-6.09c.31-.05.58-.07.95-.07,2.17,0,2.68,1.4,2.68,2.8,0,1.26-.09,3.41-2.25,3.41Z"/>
      <path class="st0" d="M151.53,21.32c-2.01-2.76-5.28-3.18-5.28-5.44,0-.96.76-1.7,1.76-1.7,1.38,0,2.82,1.3,3.21,3.3h.83l-.34-3.99h-.49c-.16.22-.27.27-.4.27-.27,0-.98-.67-3.01-.64-2.14.03-3.65,1.65-3.65,4.01,0,4.87,6.05,4.75,6.05,8.42,0,1.38-1.18,2.41-2.37,2.41-1.42,0-2.68-1.26-3.27-3.69h-.83l.45,4.53h.54c.09-.27.11-.44.42-.44.32,0,1.18.84,3.23.74,2.14-.1,4.15-1.97,4.15-4.53,0-1.18-.29-2.24-1.02-3.25Z"/>
    </g>
    <g>
      <path class="st2" d="M4,49.95h45.95V4H4v45.95Z"/>
      <path class="st1" d="M44.69,39.13h-.19v-.56s.1-.01.19-.01c.29,0,.4.14.4.29,0,.2-.18.28-.4.28M45.04,39.23h0c.18-.07.32-.2.32-.41,0-.16-.05-.27-.15-.34-.1-.07-.26-.12-.51-.12-.2,0-.33.02-.46.04v1.64h.26v-.71h.18c.21,0,.32.08.35.29.03.22.07.37.11.42h.27c-.03-.05-.07-.15-.1-.4-.03-.24-.13-.37-.27-.4"/>
      <path class="st1" d="M44.78,40.43c-.65,0-1.18-.55-1.18-1.25s.53-1.24,1.18-1.24h0c.65,0,1.18.56,1.18,1.25s-.52,1.25-1.18,1.24M44.78,37.71h0c-.8,0-1.46.65-1.46,1.47s.65,1.48,1.46,1.48,1.45-.65,1.45-1.48-.64-1.47-1.44-1.47"/>
      <path class="st1" d="M18.23,38.23c0-.84-.02-14.52-.02-15.74,0-.04,0-.09,0-.13,0-.04.02-.09.09-.09,0,.02.02.04.04.06l8.27,14.05,6.83-13.79c.04-.08-.02-.18-.11-.18h-1.89c-.13,0-.25.08-.31.19l-3.05,5.98-4.04-6.93-.36-.62-4.08-6.97c-.17-.36-.53-.59-.93-.59h-6.44v.71c.23.06.43.19.61.35.25.22.35.49.35.84,0,.15,0,.31,0,.46,0,1.78,0,3.56,0,5.33,0,3.96,0,7.92,0,11.88,0,.72,0,1.45,0,2.16v3.17-.37c0,.15,0,.31,0,.46,0,.35-.06.66-.31.88-.18.16-.42.25-.65.31v.78h2.25s2.46,0,2.46,0h.08s2.17,0,2.17,0v-.78c-.23-.06-.47-.15-.65-.31-.25-.22-.31-.53-.31-.88v-.25Z"/>
      <path class="st1" d="M46.87,17.7h-.02c-.13.07-.36.18-.82.22-.22.02-.52,0-.69-.22-.11-.14-.16-.35-.16-.61v-2.14h-.52v-.44h.53v-1.03h.74v1.03h.87v.44h-.86v1.75c0,.13,0,.25.01.34,0,.09.03.17.06.23.03.06.08.1.14.14.06.03.15.05.25.05.05,0,.13,0,.22-.01.12-.01.24-.05.24-.05v.3Z"/>
      <path class="st1" d="M42.58,17.84c-.13-.06-.23-.12-.29-.17l-.06.2h-.27l-.03-1.2h.27v.02c.02.09.06.19.11.3.05.11.12.22.19.31.08.1.17.18.28.24.11.06.21.1.35.1.19,0,.34-.05.44-.14.1-.09.15-.22.15-.4,0-.09-.02-.17-.05-.23-.03-.06-.08-.12-.14-.17-.07-.05-.15-.1-.24-.14-.1-.04-.21-.08-.33-.12-.1-.03-.21-.08-.32-.13-.12-.05-.22-.12-.31-.2-.09-.08-.17-.18-.23-.3-.06-.12-.09-.26-.09-.41,0-.28.1-.51.28-.7.19-.19.55-.29.86-.29.12,0,.25.02.37.05.11.03.21.07.28.11l.07-.16h.26l.05,1.11h-.3v-.02c-.05-.23-.14-.42-.27-.56-.14-.14-.27-.22-.46-.22-.16,0-.29.04-.38.13-.09.09-.14.19-.14.31,0,.1.02.18.04.24.03.06.08.12.13.16.06.04.14.08.23.12.09.04.2.08.34.13.14.05.27.1.38.16.12.06.22.13.3.21.09.08.15.18.2.29.05.11.07.24.07.4,0,.31-.11.57-.32.77-.21.2-.49.3-.83.3-.18,0-.45-.04-.6-.11"/>
      <path class="st1" d="M40.63,38.48c0,.35.06.67.31.89.18.16.43.25.66.31v.79h-6.98v-.79c.23-.06.47-.15.66-.31.25-.22.31-.53.31-.88v-.15c0-1.01,0-14.01-.01-18.29,0-.39-.32-.71-.71-.71h-1.87c-.09,0-.15-.09-.11-.17l2.74-5.39c.11-.2.28-.28.48-.28h4.25c.16,0,.29.13.29.29l-.02,24.7Z"/>
    </g>
  </g>
</svg>